<?xml version="1.0" standalone="no"?>
<!DOCTYPE svg PUBLIC "-//W3C//DTD SVG 20010904//EN"
 "http://www.w3.org/TR/2001/REC-SVG-20010904/DTD/svg10.dtd">
<svg version="1.0" xmlns="http://www.w3.org/2000/svg"
 width="1200.000000pt" height="1200.000000pt" viewBox="0 0 1200.000000 1200.000000"
 preserveAspectRatio="xMidYMid meet">
<metadata>
Created by potrace 1.14, written by Peter Selinger 2001-2017
</metadata>
<g transform="translate(0.000000,1200.000000) scale(0.100000,-0.100000)"
fill="#000000" stroke="none">
<path d="M5784 10929 c-10 -12 -44 -63 -74 -114 -113 -191 -143 -241 -176
-290 -18 -27 -45 -73 -61 -101 -15 -28 -41 -70 -57 -95 -72 -108 -96 -147
-123 -195 -38 -70 -126 -216 -173 -289 -54 -83 -113 -181 -144 -240 -15 -27
-32 -56 -40 -65 -7 -8 -45 -69 -85 -135 -39 -66 -76 -127 -81 -135 -33 -51
-89 -143 -167 -276 -29 -49 -56 -94 -61 -99 -16 -19 -92 -154 -92 -164 0 -5
-6 -14 -13 -18 -7 -4 -24 -26 -37 -48 -13 -22 -38 -63 -56 -91 -18 -27 -44
-72 -59 -99 -14 -27 -32 -56 -39 -65 -8 -8 -23 -33 -35 -55 -26 -48 -53 -94
-103 -172 -54 -83 -94 -150 -187 -305 -24 -40 -58 -96 -77 -124 -18 -27 -44
-72 -59 -99 -14 -27 -32 -56 -39 -65 -8 -8 -25 -34 -38 -58 -12 -23 -32 -57
-43 -76 -11 -18 -36 -58 -55 -90 -19 -32 -44 -73 -55 -91 -60 -99 -91 -149
-143 -230 -32 -50 -82 -133 -112 -185 -29 -52 -57 -97 -60 -100 -7 -5 -65
-105 -88 -150 -7 -14 -30 -52 -52 -85 -37 -56 -79 -124 -125 -201 -11 -18 -35
-57 -53 -86 -18 -29 -38 -62 -45 -73 -6 -11 -26 -43 -44 -71 -17 -27 -42 -71
-56 -96 -13 -25 -36 -61 -49 -79 -14 -19 -39 -59 -55 -90 -16 -30 -43 -75 -59
-100 -34 -51 -37 -56 -105 -169 -28 -47 -77 -128 -109 -180 -33 -52 -80 -131
-107 -175 -26 -44 -62 -102 -81 -130 -18 -27 -42 -70 -54 -95 -12 -25 -27 -49
-34 -55 -7 -5 -22 -29 -34 -52 -12 -23 -28 -47 -36 -54 -8 -6 -14 -15 -14 -19
0 -7 -21 -45 -75 -136 -96 -161 -122 -203 -143 -231 -13 -18 -38 -59 -55 -91
-18 -33 -45 -78 -61 -102 -15 -24 -39 -64 -52 -89 -14 -25 -31 -52 -38 -61 -8
-8 -24 -33 -36 -55 -12 -22 -39 -67 -61 -100 -21 -33 -43 -70 -48 -82 -6 -12
-25 -43 -43 -70 -44 -64 -56 -84 -67 -109 -5 -11 -22 -40 -39 -65 -16 -24 -43
-67 -58 -95 -16 -28 -42 -70 -58 -94 -15 -24 -39 -63 -52 -88 -13 -25 -30 -52
-36 -60 -7 -8 -24 -34 -38 -57 -14 -24 -46 -79 -72 -123 -27 -43 -48 -89 -48
-101 0 -20 5 -18 68 25 37 26 101 77 142 114 41 37 103 89 137 116 97 78 200
163 292 244 47 42 100 84 116 95 17 10 53 40 80 65 28 26 66 57 85 70 19 13
81 65 136 115 56 49 157 135 224 190 67 55 154 127 192 160 39 33 96 80 127
104 50 39 186 157 233 203 10 10 22 18 28 18 5 0 54 40 109 90 54 50 102 90
106 90 4 0 35 24 68 53 34 30 73 63 86 73 13 10 71 60 128 109 57 50 116 99
131 110 30 22 145 119 177 149 11 10 44 36 72 57 29 22 81 66 115 98 35 32 77
65 93 74 17 9 80 64 140 122 106 103 109 106 75 102 -38 -6 -158 -46 -224 -75
-44 -20 -64 -27 -201 -74 -49 -17 -99 -37 -110 -44 -11 -8 -26 -14 -35 -14 -8
0 -39 -10 -70 -21 -30 -12 -73 -28 -95 -36 -22 -9 -58 -24 -81 -34 -23 -10
-49 -19 -59 -19 -9 0 -29 -6 -43 -14 -65 -32 -238 -83 -249 -72 -4 4 -3 10 3
14 6 4 17 18 24 31 7 13 58 74 114 135 56 61 127 141 157 177 30 36 97 113
149 170 102 111 107 117 172 196 24 28 75 87 113 131 39 43 82 94 98 112 15
18 66 75 114 127 48 51 94 104 102 117 9 13 70 83 136 156 66 73 125 140 130
150 6 10 58 69 116 131 59 63 123 135 142 161 20 26 63 75 95 110 33 35 79 87
103 116 24 29 98 111 164 183 66 72 135 151 153 177 19 26 37 49 40 52 13 10
198 216 221 245 12 17 55 66 95 110 40 44 93 104 117 133 91 109 272 302 283
302 14 0 156 -144 211 -214 21 -27 88 -104 149 -172 61 -67 135 -151 165 -186
29 -35 82 -93 116 -129 34 -36 66 -73 71 -82 8 -14 112 -133 356 -405 46 -51
125 -144 176 -205 52 -62 127 -148 167 -192 40 -44 113 -125 162 -180 48 -55
92 -104 98 -110 6 -5 44 -49 84 -97 40 -48 107 -126 149 -172 43 -47 136 -153
207 -236 72 -83 175 -202 231 -263 55 -62 105 -119 110 -128 5 -9 52 -63 104
-120 52 -57 120 -131 150 -164 66 -72 114 -133 123 -158 6 -17 3 -18 -35 -12
-40 7 -62 14 -187 65 -27 11 -58 20 -67 20 -10 0 -25 6 -33 13 -9 7 -52 25
-96 40 -44 14 -109 37 -145 50 -221 82 -268 100 -297 108 -18 5 -45 16 -60 24
-15 8 -37 15 -48 15 -11 0 -29 6 -40 13 -11 8 -29 17 -40 20 -11 3 -39 13 -63
22 -24 8 -48 13 -53 10 -10 -7 16 -65 29 -65 4 0 54 -41 111 -91 57 -50 116
-98 130 -107 14 -9 56 -44 93 -78 37 -34 91 -80 120 -102 29 -22 85 -68 123
-102 39 -34 81 -70 95 -78 14 -9 69 -57 123 -107 54 -49 113 -99 131 -110 18
-11 68 -51 113 -90 44 -38 137 -117 207 -175 71 -58 165 -137 209 -175 45 -39
115 -97 155 -130 283 -232 407 -336 517 -430 108 -93 187 -158 295 -245 38
-30 104 -85 147 -122 183 -157 228 -195 281 -236 30 -24 87 -72 126 -106 83
-74 170 -136 190 -136 11 0 10 9 -6 43 -11 23 -31 56 -44 74 -13 17 -29 42
-34 55 -14 31 -62 112 -77 130 -7 8 -27 41 -44 74 -17 32 -41 73 -53 89 -12
17 -41 64 -65 105 -24 41 -49 82 -56 90 -7 8 -27 42 -44 74 -17 33 -42 74 -54
90 -13 17 -36 54 -52 81 -15 28 -31 52 -35 55 -4 3 -13 19 -22 35 -25 51 -59
109 -82 140 -11 17 -32 50 -45 75 -13 25 -39 68 -56 95 -18 28 -52 83 -76 123
-24 40 -70 115 -101 165 -31 51 -71 116 -90 146 -18 30 -43 71 -55 90 -12 20
-25 43 -29 51 -4 8 -21 35 -38 59 -16 25 -41 65 -54 90 -13 26 -38 66 -54 90
-17 25 -34 54 -39 65 -5 12 -27 48 -48 81 -22 33 -63 98 -91 145 -28 47 -68
112 -90 145 -22 33 -47 74 -55 90 -8 17 -33 57 -54 90 -22 33 -54 86 -71 119
-17 32 -50 88 -74 125 -24 36 -58 91 -75 121 -29 49 -78 129 -183 298 -18 29
-42 68 -53 87 -11 18 -36 59 -55 91 -68 112 -78 129 -101 172 -12 23 -31 50
-41 59 -10 9 -18 20 -18 25 0 14 -108 198 -141 239 -17 21 -44 64 -61 96 -16
32 -41 72 -54 90 -13 17 -28 42 -34 55 -6 13 -28 50 -49 83 -22 33 -51 82 -65
108 -14 27 -41 72 -60 100 -18 29 -53 85 -77 125 -24 40 -63 103 -86 140 -23
37 -58 96 -79 132 -20 36 -46 79 -58 95 -12 17 -44 67 -72 113 -61 103 -60
101 -114 191 -25 40 -58 97 -74 125 -16 28 -43 74 -61 101 -18 28 -51 82 -74
120 -23 39 -60 97 -81 130 -46 71 -139 226 -159 263 -8 15 -36 60 -63 100 -26
41 -48 77 -48 81 0 5 -14 28 -32 52 -18 24 -45 69 -61 99 -16 30 -39 69 -51
85 -12 17 -44 68 -71 115 -27 47 -52 87 -55 90 -4 3 -31 47 -61 98 -30 51 -63
108 -74 125 -32 51 -88 145 -114 190 -46 82 -135 222 -153 243 -10 11 -18 26
-18 33 0 6 -8 24 -18 39 -52 77 -91 140 -182 292 -5 8 -28 49 -52 89 -23 41
-52 85 -64 98 l-21 23 -19 -21z"/>
<path d="M5773 7917 c-13 -18 -23 -37 -23 -42 0 -5 -8 -17 -17 -28 -18 -19
-61 -89 -85 -137 -7 -14 -27 -46 -45 -71 -18 -26 -33 -49 -33 -53 0 -3 -15
-28 -33 -54 -18 -26 -37 -54 -41 -62 -4 -8 -17 -31 -29 -51 -12 -19 -38 -61
-57 -93 -19 -32 -44 -73 -55 -91 -51 -83 -89 -145 -125 -200 -22 -33 -44 -70
-50 -83 -5 -12 -18 -35 -28 -50 -44 -62 -119 -178 -125 -192 -4 -8 -17 -32
-30 -52 -71 -120 -113 -189 -142 -233 -18 -27 -46 -73 -61 -101 -16 -28 -36
-61 -45 -75 -48 -71 -112 -173 -133 -212 -13 -25 -35 -60 -48 -78 -14 -19 -40
-61 -57 -93 -17 -33 -37 -66 -44 -74 -6 -8 -23 -33 -37 -57 -14 -23 -38 -61
-54 -85 -15 -24 -39 -63 -52 -88 -13 -25 -30 -52 -36 -60 -15 -17 -62 -96 -80
-132 -6 -14 -19 -34 -29 -45 -9 -11 -25 -36 -36 -55 -10 -19 -32 -55 -48 -80
-41 -62 -52 -81 -67 -110 -6 -14 -20 -34 -30 -45 -17 -20 -56 -86 -80 -135 -6
-14 -20 -34 -30 -45 -9 -11 -28 -39 -40 -62 -13 -22 -39 -66 -58 -98 -19 -31
-44 -72 -55 -91 -11 -18 -36 -58 -55 -90 -19 -31 -44 -71 -55 -89 -58 -95 -90
-146 -125 -200 -22 -33 -46 -73 -55 -90 -8 -16 -33 -57 -55 -90 -22 -33 -46
-73 -55 -90 -8 -16 -33 -57 -55 -90 -21 -33 -58 -91 -81 -130 -23 -38 -56 -92
-74 -120 -18 -27 -46 -73 -61 -101 -16 -28 -36 -61 -45 -75 -9 -13 -38 -58
-64 -99 -26 -41 -56 -87 -66 -102 -10 -15 -19 -33 -19 -39 0 -7 -8 -21 -17
-32 -18 -19 -63 -93 -85 -137 -6 -14 -19 -34 -29 -45 -9 -11 -25 -36 -35 -55
-11 -19 -29 -49 -40 -65 -19 -27 -47 -73 -78 -130 -6 -11 -23 -36 -38 -55 -15
-19 -32 -46 -38 -60 -16 -36 -41 -78 -75 -130 -37 -56 -43 -65 -104 -170 -27
-47 -55 -91 -61 -98 -28 -32 36 -36 105 -7 17 7 59 23 95 35 36 13 76 29 90
36 14 7 106 42 205 78 99 35 211 76 248 90 78 30 98 31 187 12 85 -18 154 -31
330 -62 80 -14 174 -32 210 -40 36 -8 90 -19 120 -24 30 -5 105 -18 165 -29
61 -11 139 -24 175 -31 36 -6 94 -17 130 -25 36 -8 119 -24 185 -35 168 -30
314 -58 425 -82 52 -11 124 -25 160 -30 162 -23 220 -34 405 -73 39 -8 81 -15
95 -15 14 0 61 -9 105 -20 102 -25 166 -25 238 0 31 11 71 20 89 20 17 0 57 6
87 14 31 8 81 19 111 24 146 26 191 34 260 47 41 8 111 22 155 31 44 9 109 20
144 25 36 5 78 13 95 18 17 6 56 13 86 17 30 3 81 13 114 21 32 8 64 12 71 10
6 -3 43 4 81 14 38 11 98 24 134 29 63 9 152 25 295 54 80 17 152 30 278 51
49 8 98 17 108 20 11 4 70 15 132 25 61 10 161 28 221 40 102 21 112 21 143 6
19 -9 41 -16 49 -16 9 0 28 -7 42 -15 33 -18 205 -84 250 -95 18 -4 38 -12 45
-18 7 -5 46 -21 87 -35 41 -14 104 -38 140 -52 35 -15 90 -35 122 -45 52 -16
58 -16 58 -2 0 20 -31 81 -80 157 -37 56 -76 120 -127 204 -12 20 -28 50 -36
66 -8 17 -26 44 -40 61 -15 17 -31 42 -37 55 -12 27 -22 44 -65 109 -16 25
-38 61 -48 80 -11 19 -25 42 -33 50 -7 9 -24 36 -38 61 -13 25 -37 65 -52 89
-16 24 -42 66 -58 94 -28 51 -67 113 -122 195 -16 25 -42 67 -58 95 -15 28
-43 74 -61 101 -18 28 -51 82 -74 120 -37 62 -80 132 -191 310 -87 140 -152
246 -181 295 -17 30 -35 57 -40 60 -4 3 -13 17 -18 30 -6 14 -29 52 -51 85
-22 33 -47 74 -55 90 -9 17 -33 57 -55 90 -21 33 -51 83 -65 110 -14 28 -32
55 -39 60 -7 6 -19 22 -27 37 -8 15 -30 52 -49 84 -53 85 -70 113 -138 228
-34 58 -67 108 -72 111 -5 3 -21 28 -35 56 -14 28 -40 74 -59 102 -18 29 -53
86 -77 127 -24 41 -46 77 -49 80 -3 3 -19 28 -35 55 -15 28 -32 52 -36 55 -5
3 -22 33 -40 65 -17 33 -41 74 -53 90 -12 17 -44 67 -72 113 -96 162 -117 197
-124 202 -3 3 -27 41 -54 85 -26 44 -73 123 -106 175 -32 52 -73 120 -91 150
-17 30 -35 57 -38 60 -4 3 -29 43 -56 90 -27 47 -55 91 -62 98 -7 7 -13 18
-13 23 0 5 -21 42 -48 82 -26 39 -61 95 -77 122 -16 28 -35 56 -42 63 -7 7
-13 17 -13 22 0 5 -22 44 -49 87 -28 43 -62 100 -77 128 -15 27 -43 75 -64
105 -83 125 -100 151 -100 156 0 3 -25 49 -56 102 -53 92 -90 142 -103 142 -3
0 -16 -15 -28 -33z"/>
</g>
</svg>
